<?xml version="1.0" encoding="UTF-8"?>
<svg xmlns="http://www.w3.org/2000/svg" xmlns:xlink="http://www.w3.org/1999/xlink" width="96px" height="96px" viewBox="0 0 96 96" version="1.1">
<g id="surface1">
<path style=" stroke:none;fill-rule:nonzero;fill:rgb(0%,44.313726%,80.784315%);fill-opacity:1;" d="M 81.984375 77.105469 C 80.761719 77.105469 79.621094 76.328125 79.21875 75.101562 C 78.722656 73.578125 79.554688 71.933594 81.082031 71.4375 C 86.609375 69.625 90.183594 64.777344 90.183594 59.085938 C 90.183594 51.875 84.320312 46.007812 77.109375 46.007812 C 76.609375 46.007812 76.070312 46.050781 75.414062 46.132812 L 72.570312 46.503906 L 72.164062 43.664062 C 70.417969 31.492188 59.8125 22.3125 47.5 22.3125 C 37.320312 22.3125 28.257812 28.410156 24.414062 37.839844 L 23.691406 39.613281 L 21.777344 39.648438 C 12.976562 39.8125 5.816406 47.101562 5.816406 55.894531 C 5.816406 62.316406 9.542969 68.175781 15.3125 70.816406 C 16.773438 71.484375 17.417969 73.207031 16.746094 74.667969 C 16.078125 76.128906 14.355469 76.769531 12.894531 76.101562 C 5.0625 72.515625 0 64.585938 0 55.894531 C 0 44.589844 8.710938 35.117188 19.78125 33.953125 C 24.878906 23.289062 35.566406 16.5 47.5 16.5 C 61.785156 16.5 74.199219 26.515625 77.417969 40.199219 C 87.691406 40.363281 96 48.773438 96 59.085938 C 96 67.210938 90.730469 74.394531 82.890625 76.960938 C 82.589844 77.058594 82.285156 77.105469 81.984375 77.105469 Z M 81.984375 77.105469 "/>
<path style=" stroke:none;fill-rule:nonzero;fill:rgb(86.274511%,51.372552%,15.294118%);fill-opacity:1;" d="M 37.507812 78.363281 C 37.503906 78.363281 37.503906 78.363281 37.503906 78.363281 L 37.5 78.363281 C 37.5 78.363281 37.5 78.363281 37.5 78.359375 L 37.496094 78.359375 C 37.5 78.359375 37.496094 78.359375 37.496094 78.359375 C 37.496094 78.359375 37.492188 78.355469 37.492188 78.355469 L 37.488281 78.355469 C 37.488281 78.355469 37.488281 78.351562 37.484375 78.351562 C 37.480469 78.351562 37.480469 78.351562 37.480469 78.351562 C 37.480469 78.351562 37.476562 78.347656 37.476562 78.347656 L 37.472656 78.347656 C 37.472656 78.347656 37.46875 78.347656 37.46875 78.347656 C 37.464844 78.347656 37.464844 78.34375 37.464844 78.34375 C 37.421875 78.328125 37.375 78.320312 37.324219 78.316406 L 37.320312 78.316406 C 37.320312 78.316406 37.320312 78.316406 37.316406 78.316406 L 37.304688 78.316406 C 36.046875 78.316406 35.019531 77.292969 35.011719 76.039062 L 35.011719 50.492188 L 36.96875 50.492188 C 37.265625 50.503906 37.46875 50.273438 37.46875 50 C 37.46875 49.792969 37.34375 49.617188 37.164062 49.542969 L 27.769531 43.058594 C 27.601562 42.945312 27.378906 42.945312 27.210938 43.058594 L 17.742188 49.59375 C 17.566406 49.714844 17.488281 49.941406 17.550781 50.144531 C 17.617188 50.351562 17.808594 50.492188 18.023438 50.492188 L 19.980469 50.492188 L 19.980469 76.046875 C 19.992188 77.8125 21.410156 79.253906 23.214844 79.300781 C 23.238281 79.304688 23.257812 79.304688 23.277344 79.304688 L 37.308594 79.304688 C 37.4375 79.300781 37.554688 79.25 37.644531 79.167969 C 37.644531 79.164062 37.648438 79.164062 37.648438 79.164062 C 37.648438 79.164062 37.648438 79.164062 37.648438 79.160156 L 37.652344 79.160156 L 37.652344 79.15625 C 37.65625 79.15625 37.65625 79.15625 37.65625 79.15625 C 37.65625 79.15625 37.65625 79.15625 37.65625 79.152344 C 37.742188 79.066406 37.796875 78.945312 37.796875 78.8125 L 37.796875 78.804688 C 37.792969 78.613281 37.675781 78.441406 37.507812 78.363281 Z M 37.507812 78.363281 "/>
<path style=" stroke:none;fill-rule:nonzero;fill:rgb(95.686275%,69.803923%,10.588235%);fill-opacity:1;" d="M 57.796875 78.363281 C 57.792969 78.363281 57.792969 78.363281 57.792969 78.363281 L 57.789062 78.363281 L 57.789062 78.359375 C 57.789062 78.359375 57.789062 78.359375 57.785156 78.359375 C 57.78125 78.359375 57.78125 78.355469 57.78125 78.355469 L 57.777344 78.355469 C 57.777344 78.355469 57.777344 78.351562 57.773438 78.351562 C 57.769531 78.351562 57.769531 78.351562 57.769531 78.351562 C 57.769531 78.351562 57.765625 78.347656 57.765625 78.347656 C 57.761719 78.347656 57.761719 78.347656 57.761719 78.347656 C 57.757812 78.347656 57.761719 78.347656 57.757812 78.347656 C 57.757812 78.347656 57.757812 78.347656 57.757812 78.34375 L 57.753906 78.34375 C 57.710938 78.328125 57.664062 78.316406 57.613281 78.316406 L 57.589844 78.316406 C 56.335938 78.316406 55.304688 77.292969 55.296875 76.039062 L 55.296875 56.210938 L 57.253906 56.210938 C 57.261719 56.210938 57.269531 56.210938 57.273438 56.210938 C 57.546875 56.210938 57.765625 55.992188 57.765625 55.71875 C 57.765625 55.515625 57.640625 55.339844 57.460938 55.265625 L 48.066406 48.78125 C 47.898438 48.664062 47.675781 48.664062 47.507812 48.78125 L 38.042969 55.316406 C 37.867188 55.4375 37.789062 55.660156 37.851562 55.867188 C 37.917969 56.074219 38.105469 56.210938 38.324219 56.210938 L 40.273438 56.210938 L 40.273438 76.046875 C 40.28125 77.8125 41.703125 79.257812 43.507812 79.300781 C 43.527344 79.304688 43.546875 79.304688 43.566406 79.304688 L 57.601562 79.304688 C 57.730469 79.300781 57.847656 79.25 57.933594 79.167969 C 57.9375 79.164062 57.9375 79.164062 57.9375 79.164062 C 57.9375 79.160156 57.941406 79.160156 57.941406 79.160156 L 57.941406 79.15625 C 57.941406 79.15625 57.945312 79.15625 57.945312 79.15625 C 57.949219 79.15625 57.945312 79.15625 57.945312 79.152344 C 57.945312 79.152344 57.945312 79.152344 57.949219 79.152344 C 58.035156 79.0625 58.085938 78.945312 58.089844 78.8125 L 58.089844 78.804688 C 58.082031 78.613281 57.964844 78.441406 57.796875 78.363281 Z M 57.796875 78.363281 "/>
<path style=" stroke:none;fill-rule:nonzero;fill:rgb(94.901961%,84.705883%,39.215687%);fill-opacity:1;" d="M 78.140625 78.363281 C 78.136719 78.363281 78.136719 78.363281 78.136719 78.363281 L 78.132812 78.363281 C 78.132812 78.363281 78.132812 78.363281 78.132812 78.359375 C 78.132812 78.359375 78.128906 78.359375 78.128906 78.359375 C 78.128906 78.359375 78.128906 78.355469 78.128906 78.355469 C 78.128906 78.355469 78.125 78.355469 78.125 78.355469 L 78.121094 78.355469 C 78.121094 78.355469 78.121094 78.351562 78.121094 78.351562 L 78.117188 78.351562 C 78.121094 78.351562 78.117188 78.351562 78.117188 78.351562 C 78.117188 78.351562 78.113281 78.351562 78.113281 78.351562 C 78.113281 78.351562 78.109375 78.347656 78.109375 78.347656 C 78.109375 78.347656 78.109375 78.347656 78.105469 78.347656 C 78.101562 78.347656 78.101562 78.347656 78.105469 78.347656 C 78.101562 78.347656 78.101562 78.347656 78.101562 78.34375 L 78.097656 78.34375 C 78.054688 78.328125 78.007812 78.316406 77.957031 78.316406 L 77.941406 78.316406 C 77.941406 78.316406 77.941406 78.316406 77.9375 78.316406 L 77.933594 78.316406 L 77.9375 78.316406 C 76.679688 78.316406 75.652344 77.292969 75.644531 76.039062 L 75.644531 61.929688 L 77.609375 61.929688 C 77.882812 61.925781 78.109375 61.714844 78.109375 61.4375 C 78.109375 61.234375 77.984375 61.058594 77.804688 60.984375 L 68.410156 54.5 C 68.242188 54.382812 68.019531 54.382812 67.851562 54.5 L 58.382812 61.035156 C 58.203125 61.15625 58.128906 61.378906 58.191406 61.585938 C 58.257812 61.792969 58.445312 61.929688 58.660156 61.929688 L 60.613281 61.929688 L 60.617188 76.046875 C 60.625 77.8125 62.046875 79.257812 63.851562 79.300781 C 63.871094 79.304688 63.890625 79.304688 63.910156 79.304688 L 77.945312 79.304688 C 78.074219 79.300781 78.191406 79.25 78.277344 79.167969 C 78.277344 79.164062 78.28125 79.164062 78.28125 79.164062 C 78.28125 79.160156 78.28125 79.160156 78.28125 79.160156 L 78.285156 79.160156 L 78.285156 79.15625 L 78.289062 79.15625 C 78.289062 79.15625 78.289062 79.15625 78.289062 79.152344 C 78.289062 79.152344 78.289062 79.152344 78.292969 79.152344 C 78.375 79.0625 78.429688 78.945312 78.429688 78.8125 L 78.429688 78.804688 C 78.425781 78.613281 78.308594 78.441406 78.140625 78.363281 Z M 78.140625 78.363281 "/>
</g>
</svg>
